<svg xmlns="http://www.w3.org/2000/svg" width="25.29" height="18" viewBox="0 0 25.29 18"><path d="M12.64.5h0s-5.1,0-8.5.24a3.49,3.49,0,0,0-2.43,1,5.21,5.21,0,0,0-1,2.43A36.43,36.43,0,0,0,.5,8.08V9.91a36.43,36.43,0,0,0,.24,3.95,5.21,5.21,0,0,0,1,2.43,4.13,4.13,0,0,0,2.68,1c1.93.18,8.25.18,8.25.18h0s5.1,0,8.5-.26a3.49,3.49,0,0,0,2.43-1,5.22,5.22,0,0,0,1-2.43,36.42,36.42,0,0,0,.24-3.89V8.08a36.41,36.41,0,0,0-.24-3.93,5.21,5.21,0,0,0-1-2.43,3.49,3.49,0,0,0-2.43-1C17.74.5,12.64.5,12.64.5m-2.54,5,6.46,3.34-6.46,3.47Z" fill="none" stroke="#6624e2"/></svg>
